<svg width="90" height="87" viewBox="0 0 90 87" fill="none" xmlns="http://www.w3.org/2000/svg">
<path d="M36.0309 86.3123C35.8021 86.1557 35.3028 85.6859 34.9284 85.2422L34.2627 84.433L35.49 82.8408C36.1765 81.9795 37.2374 80.2829 37.8406 79.0561C39.1511 76.4721 43.7275 66.9973 44.5387 65.118L45.1004 63.8651L44.2267 61.9858C43.7483 60.9678 42.2922 58.2011 40.9817 55.8781C38.5479 51.4408 37.0918 48.387 36.8629 47.1341C36.6133 45.9595 37.1958 45.1243 38.2566 45.1243C38.7351 45.1243 39.5463 45.307 40.0248 45.5419C40.9608 45.9856 40.9817 46.0639 41.2313 48.1259C41.5017 50.3446 42.5834 53.1896 44.9132 57.6269C45.6828 59.1146 46.3277 60.4458 46.3277 60.5763C46.3277 61.0461 46.6605 60.7329 47.1389 59.7933C48.6782 56.8699 51.7985 50.1618 52.5889 48.152C53.0882 46.8731 53.7538 45.4897 54.0658 45.0721C54.7523 44.1585 55.73 44.0802 56.1876 44.9155C56.7492 45.9073 56.8116 45.7246 54.3155 50.6056C51.3408 56.5045 47.9918 63.4736 47.9918 63.8129C47.9918 64.4393 49.0111 66.6058 51.5905 71.4867C54.149 76.3416 56.1876 79.6826 57.1653 80.7527C57.6645 81.2747 57.9765 81.4053 58.3718 81.3009C59.3702 80.9876 59.4742 81.0137 59.6615 81.588C59.8903 82.3971 59.2038 83.4151 58.2678 83.65C56.4996 84.0676 53.4418 80.0219 48.6366 70.9125C46.9517 67.7281 46.4109 66.8668 46.2028 67.0756C46.0572 67.2322 45.1212 69.1376 44.1227 71.304C43.1242 73.4965 42.0633 75.7935 41.7305 76.446C40.836 78.2731 39.3591 82.1361 38.8391 84.0154C38.5687 84.955 38.1734 85.9208 37.9446 86.1818C37.487 86.6777 36.6549 86.7561 36.0309 86.3123Z" fill="white"/>
<path d="M17.2055 85.6337C13.5652 84.3286 11.277 81.8751 9.96652 77.8555C9.17606 75.4541 8.94724 74.2274 8.65602 70.782C8.07357 63.578 9.65449 55.6954 12.7747 50.2924C16.5398 43.7931 23.3419 42.7751 27.6062 48.0737C32.349 53.9466 33.7427 66.5014 30.6849 75.7674C29.0832 80.6483 26.7118 83.8849 23.6331 85.3466C22.0106 86.1296 18.9944 86.2601 17.2055 85.6337ZM22.0938 82.8669C23.6539 82.3449 24.4652 81.7446 25.7341 80.1263C28.2719 76.8636 29.6864 71.1996 29.6864 64.3088C29.6864 55.5909 27.3982 50.2663 22.8427 48.387C20.6585 47.4995 18.3287 48.4914 15.9158 51.3625C12.8371 54.9906 11.4226 59.1929 10.9442 66.1359C10.6738 70.025 10.861 72.061 11.8387 75.924C12.8371 79.8392 14.4389 81.9012 17.2055 82.8669C18.4536 83.2846 20.8249 83.3107 22.0938 82.8669Z" fill="white"/>
<path d="M66.4012 85.5554C65.0283 85.1639 63.593 83.5978 62.8233 81.6663C61.6376 78.6124 61.4296 76.707 61.4712 68.4851C61.492 64.4654 61.596 59.0102 61.7208 56.3479C61.8456 53.6855 61.8872 50.8666 61.8248 50.0835C61.6376 48.152 61.8664 47.9432 64.737 47.2385C66.0059 46.9253 68.1693 46.3249 69.563 45.8812C75.117 44.2107 77.6132 44.0019 78.7573 45.0721C79.3813 45.6463 79.5478 46.4815 79.1317 46.8992C78.9861 47.0558 77.6132 47.3168 76.0947 47.4734C73.0161 47.7605 70.5199 48.2564 68.0653 49.0656C65.9435 49.7442 65.2155 50.2663 65.0283 51.2581C64.8619 52.1195 64.217 61.9075 64.217 63.6563V64.7786L65.4235 64.622C66.0683 64.5437 67.7741 64.0478 69.2094 63.5258C71.3727 62.7427 72.0384 62.5861 73.1617 62.6905C73.9105 62.7427 74.7218 62.9515 74.9714 63.1343C75.4499 63.5258 75.7827 64.9092 75.4707 65.3007C75.2626 65.5617 75.117 65.5617 72.8081 65.4834C72.08 65.4573 70.9983 65.5617 70.4159 65.7444C68.5229 66.2925 64.9659 67.5976 64.3834 67.9891L63.8426 68.3545L63.8218 72.2698C63.7594 79.291 64.6122 82.2144 66.8588 82.8147C67.7741 83.0758 69.6878 82.5798 72.6208 81.3531C76.5523 79.6826 79.527 79.7087 80.7542 81.4053C81.4199 82.3188 81.0455 82.6581 79.3605 82.6581C77.6964 82.6581 77.114 82.8147 73.6817 84.172C71.2895 85.1378 68.6477 85.8686 67.7533 85.8164C67.4621 85.7903 66.8588 85.6859 66.4012 85.5554Z" fill="white"/>
<path d="M3.43482 77.4378C2.41555 76.1328 1.14665 72.6352 0.522604 69.3986C-0.226253 65.4573 -0.163848 58.5665 0.668215 51.1798C0.834627 49.6398 1.04264 48.0998 1.10505 47.7605C1.18825 47.2385 1.14665 47.1602 0.793024 47.2907C0.543405 47.369 0.356191 47.3951 0.356191 47.3429C0.356191 46.9514 1.06344 42.2792 1.31306 40.9742C2.10352 36.9806 4.22528 30.5075 5.723 27.5058C7.34552 24.2953 7.84476 23.4079 9.32167 21.1371C19.6184 5.11078 37.6742 -3.03286 53.7122 1.03896C55.6676 1.56099 60.2231 3.25758 61.6168 4.01452C65.7979 6.28535 68.6269 8.26906 71.872 11.1924C80.0054 18.5269 86.3707 30.2465 88.534 41.8877C89.1373 45.1765 89.3661 47.4473 89.0957 47.3951C88.8044 47.3168 88.8461 47.9171 89.2413 50.3446C90.1774 55.8781 90.2398 59.5584 89.4701 63.7346C88.9085 66.8668 88.2844 68.72 87.6188 69.2942C86.6411 70.1816 86.3499 69.3203 87.2027 68.0413C87.806 67.1539 87.8268 66.9712 87.4107 66.5274C86.9739 66.0837 87.0155 65.901 87.7228 65.0136C88.3468 64.2305 88.3468 64.1783 88.3468 61.3594C88.3468 59.6628 88.1804 57.2092 87.9308 55.3821C87.3899 51.5191 86.3083 46.1683 85.9338 45.6463C85.7882 45.4114 85.3098 45.0721 84.873 44.8894C84.4361 44.6806 83.6249 44.2629 83.0424 43.9497C81.4407 43.0362 76.2195 40.8175 73.5777 39.9301C65.2779 37.1633 57.4773 35.8322 47.7838 35.5712C31.4337 35.1013 16.1238 38.4162 4.80773 44.8894L3.95486 45.3592L3.49723 48.0476C2.37394 54.9123 2.14513 57.4702 2.14513 64.4393C2.12432 71.9043 2.22833 72.6874 3.41402 73.9925C4.07967 74.7233 4.12127 74.8538 3.87166 75.3758C3.60124 75.924 3.64284 76.0284 4.26689 76.707C4.95334 77.4378 5.09895 78.247 4.57891 78.4558C4.4333 78.5341 3.93406 78.0643 3.43482 77.4378ZM1.8331 53.033C1.93711 52.0673 2.10352 50.6839 2.20753 49.953C2.64436 46.7687 2.70677 46.09 2.49875 46.2466C2.37394 46.351 2.22833 46.9253 2.14513 47.5256C2.08272 48.152 1.91631 49.3005 1.8123 50.0835C1.52108 52.0151 1.31306 55.2255 1.50028 54.9906C1.58348 54.8862 1.72909 54.0249 1.8331 53.033ZM20.4505 33.2481L22.6763 34.7359L22.5307 33.3264C22.4475 32.5695 22.2602 31.1861 22.1146 30.2465L21.8234 28.5499L23.5707 26.3312C25.6093 23.7733 25.6717 23.9821 22.4267 23.434L20.4921 23.1208L19.3688 20.2757L18.2663 17.4307L17.1223 20.2757L15.999 23.1208L13.6692 23.5123C12.4003 23.7472 11.2978 24.0082 11.2146 24.1126C11.1522 24.1909 11.8803 25.2089 12.8371 26.3573L14.5845 28.4194L14.2308 31.1078C14.0436 32.5695 13.8772 33.979 13.8772 34.2139C13.8772 34.5532 14.3348 34.3444 16.0614 33.222L18.2455 31.7864L20.4505 33.2481ZM68.2733 33.2481L70.4159 31.8125L72.5792 33.2481C73.7857 34.0312 74.805 34.6315 74.8674 34.5532C74.9298 34.4749 74.8882 33.979 74.7842 33.4308C74.701 32.9088 74.4722 31.5776 74.3266 30.5075L74.0145 28.5499L75.7827 26.3834C76.7395 25.1828 77.4676 24.0865 77.4052 23.956C77.3428 23.8255 77.2388 23.7733 77.1556 23.8255C77.0724 23.8777 76.0323 23.7472 74.8258 23.4862L72.6416 23.0686L71.6016 20.4062C71.0399 18.9184 70.4991 17.7178 70.3951 17.7178C70.3119 17.7178 69.7918 18.9184 69.2094 20.4062L68.1901 23.0947L66.5676 23.4079C65.6731 23.5906 64.6746 23.7211 64.321 23.7211C63.0105 23.7211 63.0937 24.0604 64.9659 26.3312L66.7548 28.4977L66.4012 31.2383C66.214 32.7783 66.0059 34.1617 65.9435 34.3444C65.7771 34.8664 66.0059 34.762 68.2733 33.2481ZM42.937 19.9625L44.8715 18.7357L49.2815 21.6069L49.1567 20.2496C49.0735 19.4927 48.8862 18.1354 48.7406 17.1957L48.4494 15.4992L50.2383 13.2283C51.3824 11.7405 51.9025 10.9053 51.7153 10.827C51.5488 10.7748 50.4464 10.566 49.2607 10.3833L47.0973 10.044L46.0364 7.225C45.454 5.68502 44.9339 4.40605 44.8715 4.40605C44.8091 4.40605 44.2475 5.65891 43.6235 7.225L42.4794 10.0179L40.9192 10.3311C40.0664 10.4877 39.0055 10.6443 38.5895 10.6443C38.1526 10.6704 37.799 10.7748 37.799 10.9053C37.799 11.0619 38.5687 12.106 39.5047 13.2283L41.2105 15.3164L40.7944 18.3442C40.5656 20.0147 40.42 21.4503 40.4824 21.5025C40.524 21.5808 40.6696 21.5286 40.7944 21.3981C40.9192 21.2676 41.8969 20.615 42.937 19.9625Z" fill="white"/>
</svg>
